# This file uses centimeters as units for non-parametric coordinates.

mtllib startPlane.mtl
g default
v -0.721042 -0.778958 0.000000
v 0.778958 -0.778958 0.000000
v -0.721042 0.721042 0.000000
v 0.778958 0.721042 0.000000
vt 0.000000 0.000000
vt 1.000000 0.000000
vt 0.000000 1.000000
vt 1.000000 1.000000
vn 0.000000 0.000000 1.000000
vn 0.000000 0.000000 1.000000
vn 0.000000 0.000000 1.000000
vn 0.000000 0.000000 1.000000
s off
g planeBase
usemtl lambert2SG
f 1/1/1 2/2/2 4/4/3 3/3/4
g default
v -0.169066 -0.163501 0.006493
v 0.180934 -0.163501 0.006493
v -0.169066 -0.094688 0.006493
v 0.180934 -0.094688 0.006493
vt 0.000000 0.000000
vt 1.000000 0.000000
vt 0.000000 0.196609
vt 1.000000 0.196609
vn 0.000000 0.000000 1.000000
vn 0.000000 0.000000 1.000000
vn 0.000000 0.000000 1.000000
vn 0.000000 0.000000 1.000000
s off
g collisionBox
usemtl initialShadingGroup
f 5/5/5 6/6/6 8/8/7 7/7/8
